<?xml version="1.0" standalone="no"?>
<!DOCTYPE svg PUBLIC "-//W3C//DTD SVG 20010904//EN"
 "http://www.w3.org/TR/2001/REC-SVG-20010904/DTD/svg10.dtd">
<svg version="1.0" xmlns="http://www.w3.org/2000/svg"
 width="456.000000pt" height="456.000000pt" viewBox="0 0 456.000000 456.000000"
 preserveAspectRatio="xMidYMid meet">
<metadata>
Created by potrace 1.14, written by Peter Selinger 2001-2017
</metadata>
<g transform="translate(0.000000,456.000000) scale(0.100000,-0.100000)"
fill="#000000" stroke="none">
<path d="M1160 4443 c0 -7 -7 -10 -15 -6 -9 3 -15 1 -13 -3 4 -13 -38 -65 -46
-57 -3 3 -6 1 -6 -6 0 -6 -16 -27 -36 -46 -20 -19 -32 -35 -28 -35 5 0 -6 -13
-24 -29 -17 -17 -32 -35 -32 -41 0 -6 -4 -8 -10 -5 -5 3 -10 0 -10 -8 0 -8 -7
-18 -16 -21 -9 -4 -15 -9 -12 -12 3 -2 -21 -31 -53 -64 -32 -33 -57 -60 -54
-60 5 0 -25 -34 -105 -120 -66 -70 -91 -100 -85 -100 2 0 -18 -22 -46 -50 -27
-27 -47 -50 -43 -50 4 0 -6 -12 -22 -27 -16 -15 -28 -31 -27 -35 2 -4 -2 -8
-8 -8 -6 0 -17 -7 -25 -15 -9 -8 -12 -15 -8 -15 4 0 -3 -9 -16 -20 -13 -11
-19 -20 -14 -20 5 0 -4 -9 -21 -20 -16 -11 -26 -20 -22 -20 5 0 -9 -18 -31
-40 -22 -21 -43 -48 -47 -60 -4 -11 -11 -18 -16 -15 -5 4 -9 2 -9 -4 0 -6 -13
-24 -29 -40 -16 -16 -26 -32 -23 -36 4 -3 1 -10 -6 -14 -9 -5 -4 -18 18 -49
16 -23 30 -46 30 -52 0 -5 5 -10 10 -10 6 0 10 -4 10 -9 0 -5 23 -44 50 -85
28 -42 50 -79 50 -83 0 -5 14 -24 30 -43 16 -19 30 -38 30 -42 0 -10 63 -102
72 -106 4 -2 8 -12 8 -23 0 -10 4 -19 9 -19 5 0 14 -14 21 -30 7 -17 20 -36
29 -43 9 -7 17 -19 19 -27 2 -8 8 -17 13 -18 5 -2 9 -8 9 -13 0 -6 18 -37 40
-70 22 -33 40 -62 40 -64 0 -2 21 -34 46 -70 25 -36 43 -65 40 -65 -6 0 16
-29 44 -58 8 -9 14 -18 14 -21 -3 -14 9 -30 19 -24 6 4 7 1 2 -7 -4 -7 -3 -15
2 -19 5 -3 24 -31 43 -61 19 -30 37 -57 40 -60 3 -3 11 -17 19 -32 8 -16 18
-28 23 -28 5 0 6 -5 3 -10 -3 -6 1 -13 9 -16 9 -3 13 -10 10 -15 -3 -5 0 -9 6
-9 6 0 9 -4 6 -8 -3 -5 4 -18 14 -30 11 -12 20 -24 20 -26 0 -3 23 -39 50 -80
27 -41 50 -79 50 -86 0 -6 7 -13 15 -16 8 -4 15 -15 15 -25 0 -10 5 -19 11
-19 5 0 8 -4 5 -9 -4 -5 -2 -11 2 -13 9 -3 72 -93 72 -102 0 -8 84 -130 95
-138 5 -4 6 -8 2 -8 -5 0 -1 -7 7 -16 9 -8 16 -22 16 -30 0 -8 4 -12 10 -9 5
3 10 1 10 -5 0 -6 14 -31 30 -56 17 -24 27 -44 23 -44 -4 0 -1 -5 7 -10 8 -5
15 -14 15 -19 0 -6 9 -17 20 -26 11 -9 13 -13 5 -9 -8 4 -5 -4 8 -18 12 -13
22 -29 22 -35 0 -7 6 -18 13 -25 17 -19 50 -68 66 -100 8 -16 18 -28 23 -28 4
0 8 -7 8 -15 0 -8 5 -15 10 -15 6 0 10 -8 10 -18 0 -9 9 -23 20 -30 11 -7 20
-17 20 -23 0 -5 17 -36 38 -67 20 -31 43 -70 51 -85 8 -15 18 -27 23 -27 4 0
8 -6 8 -13 0 -7 9 -23 20 -35 11 -12 20 -24 20 -27 0 -7 59 -96 69 -105 3 -3
7 -12 9 -20 2 -8 8 -16 13 -18 5 -2 9 -9 9 -16 0 -7 9 -22 20 -34 12 -12 18
-22 15 -22 -3 0 -1 -6 5 -12 21 -26 60 -89 60 -98 0 -6 3 -10 8 -10 4 0 18
-20 32 -45 14 -25 28 -45 32 -45 5 0 8 -7 8 -16 0 -8 6 -22 13 -29 25 -28 33
-41 53 -75 10 -19 25 -41 32 -48 7 -8 9 -18 6 -24 -4 -6 -2 -8 4 -4 6 3 14 1
18 -6 5 -8 10 -4 16 11 4 12 12 19 18 16 6 -4 10 -3 9 2 -4 14 20 63 31 63 5
0 9 6 7 13 -1 6 3 11 10 10 7 -2 10 3 7 10 -2 7 5 22 16 34 11 12 20 25 20 28
0 3 11 22 25 42 13 20 21 41 18 46 -3 6 -1 7 5 3 6 -3 16 7 24 24 7 16 16 30
20 30 5 0 8 7 8 15 0 8 5 15 10 15 6 0 10 7 10 15 0 8 4 15 8 15 5 0 14 16 22
35 7 19 16 32 20 30 4 -2 13 11 20 30 7 19 20 37 27 40 8 2 11 9 8 15 -3 5 -2
10 4 10 5 0 13 9 16 20 4 11 11 17 17 14 6 -4 9 -3 6 2 -9 14 10 56 22 49 6
-3 7 1 4 9 -3 9 -1 16 5 16 6 0 11 7 11 15 0 8 4 15 8 15 5 0 16 16 25 35 9
19 22 35 27 35 6 0 9 4 6 8 -3 5 3 18 14 29 10 12 17 23 14 26 -2 2 2 10 11
17 8 7 15 18 15 25 0 7 7 16 16 19 8 3 13 10 10 15 -3 5 0 14 8 20 8 7 29 36
47 66 18 30 37 55 42 55 4 0 6 4 2 10 -3 5 3 18 14 29 11 11 17 22 14 25 -4 3
-1 6 6 6 7 0 10 4 7 9 -3 5 1 12 10 15 8 3 12 10 9 16 -3 5 -1 10 4 10 6 0 11
6 11 14 0 8 3 16 8 18 11 5 52 66 52 78 0 5 5 10 11 10 5 0 8 4 4 9 -3 5 -1
13 5 16 15 9 65 88 62 98 -1 4 1 7 6 7 4 0 16 16 26 35 11 19 23 35 28 35 5 0
7 4 4 9 -3 5 1 14 9 21 8 7 13 16 10 20 -3 4 2 10 10 14 8 3 15 10 15 16 0 6
9 20 20 32 10 12 17 25 14 30 -3 4 0 8 5 8 6 0 11 6 11 14 0 8 7 17 16 20 8 3
12 10 9 16 -3 5 -1 10 4 10 6 0 11 7 11 15 0 8 5 15 10 15 6 0 10 7 10 15 0 7
8 19 18 24 9 6 13 11 9 11 -4 0 10 27 33 59 22 33 40 64 40 70 0 5 10 17 23
26 12 8 21 17 20 20 -4 12 11 45 20 45 6 0 8 3 5 6 -4 3 2 14 13 25 10 10 19
26 19 35 0 8 4 13 9 10 5 -3 14 6 20 22 11 28 32 63 42 72 3 3 18 26 33 53 15
26 32 47 37 47 5 0 8 3 7 8 -2 13 15 47 29 55 7 5 11 12 8 18 -4 5 1 12 9 15
9 3 16 14 16 23 0 9 9 22 21 29 12 7 19 16 16 19 -3 3 10 27 29 54 19 27 32
49 29 49 -3 0 3 10 15 22 11 12 20 27 20 34 0 6 7 15 16 18 8 3 12 10 9 16 -3
5 -1 10 4 10 6 0 11 7 11 15 0 8 4 15 8 15 8 0 34 47 34 60 0 3 6 9 14 13 8 4
14 15 14 22 0 8 5 15 10 15 6 0 10 7 10 15 0 8 5 15 11 15 5 0 7 5 4 10 -3 6
1 10 10 10 11 0 15 5 11 15 -3 8 -1 15 5 15 6 0 7 5 4 10 -3 6 1 10 10 10 9 0
14 4 10 9 -3 5 2 16 10 24 8 9 15 20 15 26 0 6 5 11 10 11 6 0 10 4 10 10 0 9
35 66 65 105 8 10 15 23 15 27 0 4 8 17 18 28 9 11 17 24 16 28 0 4 8 16 18
26 10 11 24 32 30 48 7 15 16 28 19 28 14 0 17 41 3 47 -8 3 -14 9 -14 15 0 5
-10 20 -22 33 -13 13 -43 46 -68 75 -25 28 -60 66 -77 85 -18 19 -33 38 -33
43 0 5 -16 24 -37 41 -20 17 -33 31 -30 31 4 0 -7 13 -23 29 -17 15 -30 31
-30 34 0 3 -19 26 -42 50 -24 25 -61 67 -83 93 -91 107 -155 180 -208 235 -21
21 -35 39 -32 39 3 0 0 6 -7 14 -7 8 -16 12 -21 9 -4 -2 -6 -1 -5 4 4 12 -28
54 -35 46 -4 -3 -7 0 -7 8 0 8 -9 21 -20 29 -11 8 -20 20 -20 27 0 7 -7 13
-16 13 -8 0 -12 5 -9 10 3 6 1 10 -5 10 -6 0 -8 5 -5 10 3 6 -1 10 -9 10 -8 0
-23 14 -33 30 -9 17 -23 30 -29 30 -7 0 -14 6 -16 12 -7 19 -2268 19 -2268 1z
m299 -285 c9 -9 12 -9 7 -1 -7 13 51 13 73 -1 9 -6 12 -5 7 2 -9 14 54 13 73
-2 11 -8 13 -8 8 0 -9 15 105 14 115 -1 5 -7 8 -6 8 1 0 6 11 12 25 12 14 0
25 -6 25 -12 0 -8 2 -8 8 0 8 14 54 13 64 -1 5 -7 8 -6 8 1 0 13 79 13 99 0 9
-6 12 -5 8 1 -4 6 8 10 28 10 20 0 32 -4 28 -10 -4 -6 -1 -7 8 -2 20 13 72 14
88 1 10 -7 13 -8 8 0 -4 7 6 11 28 11 20 0 32 -4 28 -10 -4 -6 -1 -7 8 -1 23
14 49 15 49 1 0 -7 3 -8 8 -2 11 15 64 17 55 2 -5 -9 -4 -9 8 0 16 13 36 12
58 -1 9 -6 12 -5 7 2 -9 14 46 11 56 -3 5 -6 8 -5 8 3 0 6 9 12 20 12 11 0 20
-6 20 -12 0 -9 3 -9 8 -3 4 6 25 11 47 11 22 0 43 -5 47 -11 5 -6 8 -6 8 2 0
14 52 13 62 -2 5 -7 8 -6 8 0 0 14 57 18 65 5 4 -6 12 -7 18 -3 22 14 49 14
41 1 -6 -10 -5 -10 7 -1 15 12 43 12 55 0 4 -3 12 -3 18 0 19 12 45 13 51 2 5
-7 11 -6 21 2 11 9 18 8 31 -2 9 -8 14 -9 10 -3 -4 7 6 11 28 11 19 0 35 -5
35 -11 0 -7 3 -8 8 -1 9 13 64 16 56 4 -3 -5 0 -9 7 -9 15 0 4 -98 -15 -128
-4 -7 -5 -19 -2 -27 2 -7 1 -15 -4 -17 -6 -2 -11 -15 -12 -30 -1 -16 -5 -28
-8 -28 -3 0 -6 -10 -7 -23 -2 -23 -10 -60 -13 -64 -2 -2 -3 -6 -4 -10 -1 -5
-6 -23 -10 -40 -4 -18 -11 -33 -14 -33 -4 0 -8 -12 -9 -27 -1 -27 -18 -101
-30 -133 -3 -8 -7 -24 -8 -35 -2 -24 -23 -65 -33 -66 -74 -6 -130 -4 -125 4 4
6 1 7 -8 1 -18 -10 -188 -13 -210 -2 -9 4 -19 4 -23 1 -11 -12 -416 -9 -416 2
0 7 -3 7 -8 0 -6 -9 -88 -12 -117 -5 -5 1 -12 2 -15 0 -25 -9 -50 -8 -44 2 5
7 3 8 -7 2 -20 -12 -120 -13 -112 -1 4 6 1 7 -8 2 -16 -10 -219 -13 -219 -4 0
4 -8 5 -19 2 -24 -6 -50 30 -46 63 1 13 -2 24 -6 24 -5 0 -9 8 -9 18 -1 9 -9
40 -19 69 -10 29 -13 49 -8 46 6 -3 7 -2 4 4 -11 17 -30 67 -34 88 -8 40 -10
50 -16 65 -3 8 -8 32 -12 53 -3 21 -9 36 -13 33 -4 -2 -7 6 -8 17 0 12 -4 31
-9 41 -6 13 -5 17 3 12 6 -4 5 5 -3 21 -17 35 -35 110 -27 118 8 8 17 6 31 -7z
m-309 -194 c0 -8 5 -14 10 -14 6 0 10 -8 10 -18 0 -10 3 -22 7 -26 4 -3 8 -15
10 -26 5 -32 11 -65 13 -70 1 -3 2 -8 1 -12 0 -5 3 -8 8 -8 5 0 7 -9 4 -20 -3
-11 -1 -20 4 -20 5 0 10 -17 11 -37 2 -21 6 -40 10 -43 10 -7 15 -29 16 -67 1
-17 6 -31 11 -30 6 1 9 -6 7 -16 -2 -10 2 -25 9 -33 10 -12 9 -18 -5 -32 -15
-15 -18 -15 -26 -2 -5 8 -10 11 -10 5 0 -6 -88 -10 -246 -9 -226 0 -248 2
-260 19 -12 15 -10 21 16 45 17 16 30 31 30 35 0 4 8 14 18 22 9 8 11 11 3 7
-9 -5 -12 -3 -7 4 4 7 13 12 19 12 7 0 20 9 30 20 9 11 14 20 10 20 -3 0 7 13
23 28 67 66 114 124 108 135 -4 7 -4 9 0 6 7 -7 66 44 66 58 0 4 9 14 20 21
12 7 18 18 14 25 -4 7 -4 9 0 5 9 -8 45 24 39 34 -2 4 3 5 11 2 9 -3 16 -12
16 -20z m2377 -88 c17 -20 29 -36 27 -36 -3 0 1 -6 8 -14 7 -8 16 -12 21 -9 4
2 7 -1 7 -7 0 -6 6 -18 13 -25 6 -8 23 -27 37 -44 14 -17 41 -48 60 -69 77
-86 88 -100 83 -106 -4 -3 1 -6 11 -6 9 0 14 -4 11 -10 -3 -5 -2 -10 4 -10 13
0 35 -40 27 -48 -9 -9 -457 -8 -463 1 -3 4 -10 4 -16 -1 -22 -15 -71 3 -63 24
3 8 0 14 -7 15 -9 0 -9 2 0 5 7 3 9 12 6 21 -5 12 -3 14 7 8 9 -5 11 -4 6 4
-4 6 -2 28 5 49 7 20 12 45 10 55 -1 9 2 17 7 17 5 0 9 6 10 13 1 15 10 52 12
52 1 0 4 11 6 25 7 39 11 53 21 80 6 14 8 31 6 38 -3 6 -1 12 5 12 5 0 9 12 8
28 0 16 4 26 12 25 7 -2 11 0 11 5 -5 33 0 28 108 -92z m-2775 -691 c5 -7 8
-7 8 0 0 6 15 9 32 8 18 -1 33 -2 33 -3 0 -1 10 -3 23 -4 12 -2 22 1 22 5 0
10 34 6 42 -6 5 -6 8 -5 8 4 0 11 3 11 15 1 12 -10 15 -10 15 1 0 11 2 11 10
-1 5 -8 10 -10 10 -5 0 6 31 10 74 10 41 0 72 -3 69 -7 -2 -5 1 -8 6 -8 6 0
11 3 11 8 0 11 94 9 102 -3 5 -6 8 -5 8 4 0 10 3 11 13 2 8 -6 16 -8 20 -5 3
3 20 6 39 7 31 2 71 -23 66 -40 -1 -5 3 -18 10 -29 6 -12 9 -24 5 -27 -3 -4
-1 -13 5 -20 7 -8 14 -27 16 -43 2 -16 6 -36 10 -45 4 -9 8 -28 10 -43 1 -14
6 -29 9 -33 4 -3 7 -19 7 -35 0 -15 4 -28 8 -28 4 0 9 -11 10 -26 1 -14 6 -33
12 -43 5 -10 7 -21 3 -24 -3 -4 -1 -13 6 -21 6 -8 11 -18 10 -22 -3 -13 11
-66 22 -87 6 -11 8 -21 5 -24 -3 -3 -1 -13 4 -23 5 -9 12 -31 15 -48 3 -17 10
-44 17 -59 6 -15 10 -32 9 -36 -1 -8 8 -40 27 -97 7 -21 9 -30 17 -69 3 -19 9
-39 13 -45 3 -6 5 -21 3 -33 -1 -13 2 -23 7 -23 6 0 9 -8 7 -17 -1 -10 1 -23
6 -28 4 -6 11 -26 14 -44 3 -18 7 -38 8 -44 1 -7 5 -14 9 -17 4 -3 9 -19 12
-35 2 -17 5 -30 6 -30 1 0 4 -11 14 -60 1 -5 5 -16 9 -22 5 -7 6 -17 2 -22 -3
-5 0 -13 6 -16 5 -4 8 -12 6 -19 -3 -6 1 -20 8 -29 7 -10 11 -27 8 -37 -3 -11
-1 -20 5 -20 6 0 9 -9 7 -20 -2 -11 2 -25 8 -32 7 -7 13 -24 15 -38 5 -51 8
-65 14 -76 4 -6 9 -21 12 -35 7 -31 21 -82 38 -139 13 -40 14 -52 9 -77 -2
-10 -40 37 -46 58 -4 11 -11 19 -16 19 -5 0 -9 9 -9 20 0 11 -7 20 -15 20 -8
0 -14 3 -13 8 3 10 -58 113 -63 107 -3 -2 -11 11 -18 30 -7 19 -17 35 -22 35
-5 0 -9 5 -9 10 0 12 -111 183 -122 188 -4 2 -4 10 -1 19 4 11 2 14 -5 9 -7
-4 -12 -1 -12 9 0 10 -5 13 -12 9 -6 -4 -8 -3 -4 4 3 6 -1 18 -10 26 -8 9 -13
16 -9 16 3 0 -3 10 -14 22 -11 11 -18 25 -15 30 3 4 0 8 -5 8 -6 0 -11 7 -11
15 0 8 -4 15 -10 15 -5 0 -10 7 -10 15 0 7 -6 18 -13 22 -7 4 -21 25 -32 46
-11 20 -22 37 -25 37 -3 0 -11 13 -18 28 -6 16 -22 39 -35 52 -12 14 -21 27
-19 30 1 3 -6 14 -15 25 -9 11 -17 22 -17 25 1 3 -9 18 -20 33 -12 16 -20 31
-18 33 2 4 -7 16 -35 49 -7 7 -13 18 -13 23 0 5 -9 20 -19 34 -11 14 -21 31
-23 39 -2 8 -11 20 -20 27 -10 7 -18 20 -18 28 0 8 -4 14 -10 14 -5 0 -10 7
-10 15 0 8 -4 15 -10 15 -5 0 -10 4 -10 9 0 5 -18 37 -40 70 -22 33 -40 65
-40 71 0 5 -4 10 -10 10 -5 0 -10 7 -10 15 0 8 -4 15 -9 15 -5 0 -14 14 -21
30 -7 17 -16 30 -21 30 -5 0 -9 5 -9 10 0 9 -76 127 -90 140 -3 3 -6 12 -8 20
-2 8 -8 17 -13 18 -5 2 -9 10 -9 18 0 8 -4 14 -9 14 -5 0 -12 8 -15 18 -12 33
-36 67 -46 65 -5 -2 -9 0 -9 5 3 20 -2 32 -12 27 -6 -5 -6 0 1 12 13 21 79 26
92 8z m1083 5 c-2 -3 5 -6 16 -6 10 0 19 3 19 7 0 10 34 5 42 -6 5 -6 8 -6 8
1 0 7 15 9 45 4 25 -4 45 -4 45 -1 0 3 30 5 67 4 38 -1 68 -2 68 -3 0 -1 28
-2 63 -3 34 -1 62 0 62 3 0 3 19 4 42 3 24 -1 43 -2 43 -3 0 0 30 -2 68 -3 37
-1 67 0 67 3 0 7 130 4 137 -4 3 -3 14 -1 24 5 14 7 19 6 20 -3 0 -7 2 -8 5
-3 4 11 125 12 143 1 6 -4 11 -3 11 1 0 5 9 9 20 9 11 0 20 -6 20 -13 0 -7 4
-13 10 -13 10 0 9 -27 -1 -45 -4 -5 -5 -20 -4 -32 1 -12 -2 -20 -7 -17 -7 5
-12 -19 -11 -53 1 -7 -4 -13 -9 -13 -6 0 -8 -6 -5 -14 3 -8 0 -20 -8 -26 -7
-6 -11 -20 -8 -30 3 -11 1 -20 -4 -20 -5 0 -10 -14 -11 -32 -2 -17 -6 -36 -10
-42 -5 -6 -7 -21 -6 -33 0 -13 -3 -23 -8 -23 -6 0 -8 -7 -4 -15 3 -8 1 -15 -4
-15 -5 0 -7 -6 -4 -14 3 -8 0 -17 -5 -21 -6 -3 -9 -11 -5 -16 3 -5 2 -15 -3
-22 -5 -7 -9 -19 -8 -27 0 -8 -9 -43 -21 -77 -14 -42 -18 -64 -10 -67 6 -2 4
-5 -5 -5 -11 -1 -15 -9 -14 -26 2 -14 -1 -25 -6 -25 -6 0 -8 -3 -6 -7 3 -5 0
-19 -5 -33 -6 -14 -12 -34 -13 -45 -4 -22 -9 -43 -18 -65 -6 -14 -13 -50 -19
-95 -2 -11 -6 -22 -9 -25 -4 -3 -10 -21 -13 -41 -3 -20 -10 -48 -15 -63 -6
-14 -8 -26 -5 -26 2 0 0 -8 -5 -18 -6 -11 -12 -32 -15 -47 -3 -16 -10 -32 -17
-35 -7 -5 -8 -10 -1 -14 7 -4 5 -16 -4 -36 -9 -16 -13 -34 -10 -39 4 -5 2 -12
-4 -16 -5 -3 -10 -20 -10 -36 0 -17 -4 -28 -9 -25 -5 4 -8 -5 -6 -19 1 -14 -2
-25 -8 -25 -6 0 -8 -3 -4 -6 3 -3 1 -18 -5 -33 -6 -14 -12 -37 -13 -51 -1 -14
-5 -33 -9 -42 -3 -10 -9 -26 -13 -35 -10 -29 -14 -46 -17 -78 -2 -17 -8 -40
-14 -50 -5 -11 -11 -24 -11 -30 -4 -28 -13 -62 -20 -75 -4 -8 -7 -24 -6 -35 0
-11 -3 -23 -7 -26 -5 -3 -9 -17 -10 -32 -1 -15 -6 -27 -10 -27 -4 0 -7 -3 -6
-7 4 -20 -16 -113 -24 -113 -5 0 -6 -9 -3 -20 3 -11 2 -20 -3 -20 -5 0 -9 -6
-10 -12 -1 -16 -6 -37 -16 -65 -6 -19 -11 -21 -27 -12 -12 6 -18 17 -15 24 3
8 1 17 -5 20 -5 4 -7 10 -4 15 3 5 1 11 -4 15 -6 3 -8 12 -4 20 3 8 1 15 -4
15 -5 0 -10 6 -10 13 -3 41 -8 67 -14 67 -6 0 -7 9 -10 55 -1 14 -5 25 -9 25
-7 0 -12 23 -27 110 -2 13 -7 27 -11 30 -8 6 -11 19 -14 55 -1 14 -7 25 -13
25 -5 0 -4 4 3 9 11 7 11 9 -1 14 -10 4 -13 13 -10 26 3 12 1 21 -4 21 -5 0
-10 6 -11 13 -1 18 -10 72 -12 72 -2 0 -9 30 -14 55 -2 8 -6 22 -9 30 -4 8 -8
25 -10 37 -2 12 -6 26 -10 29 -4 4 -7 23 -7 41 0 19 -4 32 -9 29 -5 -4 -8 5
-6 19 1 14 -1 28 -5 30 -4 3 -11 22 -16 42 -4 21 -8 40 -9 43 -1 3 -6 20 -10
38 -4 17 -12 32 -17 32 -6 0 -5 7 2 15 9 11 9 15 1 15 -7 0 -10 4 -7 8 3 5 -1
19 -8 33 -7 13 -11 30 -9 36 2 6 0 14 -6 17 -6 4 -8 13 -4 21 3 8 1 15 -4 15
-5 0 -10 10 -10 23 -2 29 -7 49 -16 65 -5 6 -6 16 -2 21 3 5 0 13 -6 16 -5 4
-8 13 -5 21 3 8 2 14 -3 14 -4 0 -8 6 -9 13 -2 22 -7 42 -15 55 -5 7 -3 12 5
13 10 0 10 2 1 6 -7 2 -13 13 -13 24 0 10 -3 19 -7 19 -7 0 -10 18 -13 72 -1
10 -5 20 -11 23 -5 4 -9 16 -9 29 0 12 -3 26 -7 29 -3 4 -8 17 -9 29 -6 43
-10 57 -17 64 -4 4 -7 15 -7 24 0 9 -8 42 -19 73 -12 38 -14 57 -7 57 8 0 8 2
0 8 -9 6 -31 72 -37 112 -2 8 -6 20 -10 27 -4 6 -8 23 -9 37 -1 14 -5 26 -8
26 -3 0 -7 11 -8 25 -1 13 -3 30 -4 37 -2 7 5 12 14 12 10 -1 16 1 14 5 -2 3
24 6 59 6 35 0 62 -2 60 -5z m1440 1 c-2 -4 5 -7 16 -7 10 0 19 3 19 6 0 3 9
6 20 6 11 0 20 -3 20 -6 0 -3 11 -5 24 -5 13 0 22 3 19 8 -6 9 1 9 31 -3 14
-5 26 -6 26 -2 0 9 114 7 129 -2 6 -4 11 -3 11 3 0 7 8 7 26 1 14 -6 23 -6 20
-2 -7 11 108 9 116 -3 5 -6 8 -5 8 4 0 11 3 11 15 1 8 -7 15 -8 15 -3 0 7 54
10 70 3 3 -1 14 -3 25 -4 26 -1 27 -43 3 -70 -10 -11 -18 -25 -18 -31 0 -6 -8
-18 -17 -26 -17 -15 -73 -103 -73 -114 0 -5 -12 -22 -40 -52 -8 -9 -15 -22
-16 -29 -1 -7 -11 -23 -23 -35 -11 -12 -23 -31 -27 -41 -3 -10 -10 -18 -15
-18 -5 0 -9 -6 -9 -14 0 -8 -7 -21 -15 -30 -9 -8 -16 -18 -15 -21 1 -21 -1
-25 -11 -19 -7 4 -10 1 -7 -7 2 -7 -7 -24 -20 -36 -14 -13 -22 -26 -19 -29 8
-9 -16 -33 -27 -26 -5 3 -6 0 -2 -6 3 -6 -2 -15 -11 -21 -14 -8 -15 -11 -3
-11 12 -1 12 -3 -2 -14 -10 -7 -15 -16 -11 -19 3 -4 2 -7 -4 -7 -6 0 -18 -16
-27 -35 -9 -19 -22 -35 -28 -35 -6 0 -8 -3 -5 -7 7 -6 -37 -71 -57 -85 -6 -4
-7 -8 -2 -8 5 0 1 -9 -9 -20 -10 -11 -14 -20 -9 -20 5 0 4 -4 -2 -8 -20 -14
-63 -85 -57 -95 3 -6 1 -7 -5 -3 -6 3 -16 -7 -24 -24 -7 -16 -16 -30 -20 -30
-5 0 -8 -7 -8 -15 0 -8 -4 -15 -10 -15 -5 0 -10 -7 -10 -15 0 -8 -3 -15 -8
-15 -7 0 -25 -30 -38 -62 -3 -10 -11 -18 -16 -18 -5 0 -6 -5 -3 -10 3 -6 -1
-13 -9 -16 -9 -3 -16 -12 -16 -20 0 -8 -9 -19 -19 -26 -10 -6 -17 -17 -15 -23
3 -6 -4 -20 -16 -30 -11 -10 -20 -22 -20 -27 0 -6 -9 -21 -20 -35 -11 -14 -17
-30 -13 -36 3 -6 1 -7 -5 -3 -7 4 -12 1 -12 -7 0 -8 -7 -18 -16 -21 -8 -3 -12
-10 -9 -16 3 -5 1 -10 -4 -10 -6 0 -11 -7 -11 -15 0 -8 -4 -15 -10 -15 -5 0
-12 -11 -16 -25 -3 -14 -10 -25 -14 -25 -5 0 -12 -10 -15 -22 -4 -13 -15 -32
-25 -43 -10 -11 -20 -26 -22 -34 -2 -8 -10 -22 -18 -32 -34 -40 -41 -49 -35
-49 3 0 -3 -10 -14 -22 -11 -11 -18 -24 -16 -28 2 -4 -5 -16 -15 -28 -11 -12
-20 -26 -20 -32 0 -10 -13 -14 -37 -11 -7 1 -13 -3 -13 -9 0 -5 -4 -10 -9 -10
-5 0 -5 14 1 33 6 17 13 39 16 47 5 17 11 44 16 80 1 14 7 24 12 23 6 -1 10
10 11 25 4 69 9 92 21 97 7 3 11 15 8 30 -3 14 0 25 5 25 6 0 9 6 6 13 -2 6 2
27 10 45 7 17 10 32 7 32 -4 0 -1 7 6 15 7 8 10 15 7 15 -4 0 0 18 8 39 7 22
11 42 8 45 -4 3 -1 6 6 6 7 0 9 5 6 10 -3 6 -3 16 1 22 5 7 9 19 10 28 5 29
10 45 18 59 7 11 6 12 -5 6 -12 -8 -12 -6 -1 8 8 9 11 21 7 27 -3 5 -2 10 3
10 8 0 31 80 35 123 1 9 5 17 10 17 4 0 7 8 6 18 -1 9 -1 20 0 25 0 4 0 9 -1
10 -2 2 4 12 12 22 8 9 15 27 15 39 1 21 20 97 32 126 3 8 5 23 4 33 -1 9 2
17 6 17 5 0 9 8 10 18 1 9 4 31 8 47 11 46 13 59 14 68 1 5 5 6 9 3 4 -2 7 8
6 22 -1 15 3 33 9 40 5 6 6 12 3 12 -4 0 -1 10 6 23 6 12 13 33 14 47 1 14 2
25 3 25 2 0 4 8 6 17 2 9 8 33 15 52 6 20 9 40 5 46 -3 5 -1 10 4 10 6 0 10 3
10 8 -1 4 0 10 1 15 1 4 4 12 5 17 1 6 4 12 5 15 1 3 3 13 4 23 1 9 5 22 9 29
4 6 8 23 9 37 1 14 6 26 11 26 5 0 7 7 3 15 -3 8 0 15 7 16 9 0 9 2 0 5 -12 5
6 51 25 63 14 8 72 10 67 2z"/>
</g>
</svg>
