<?xml version="1.0" standalone="no"?>
<!DOCTYPE svg PUBLIC "-//W3C//DTD SVG 20010904//EN"
 "http://www.w3.org/TR/2001/REC-SVG-20010904/DTD/svg10.dtd">
<svg version="1.0" xmlns="http://www.w3.org/2000/svg"
 width="604.000000pt" height="604.000000pt" viewBox="0 0 604.000000 604.000000"
 preserveAspectRatio="xMidYMid meet">
<metadata>
Created by potrace 1.14, written by Peter Selinger 2001-2017
</metadata>
<g transform="translate(0.000000,604.000000) scale(0.100000,-0.100000)"
fill="#000000" stroke="none">
<path d="M2182 4855 c-58 -66 -111 -125 -116 -131 -6 -6 -24 -26 -40 -45 -16
-19 -45 -52 -65 -74 -20 -23 -63 -72 -96 -110 -33 -37 -64 -73 -70 -79 -5 -6
-34 -39 -63 -73 l-54 -63 25 -42 c14 -24 61 -99 105 -168 257 -399 317 -494
321 -504 2 -6 7 -13 10 -16 7 -5 163 -246 171 -264 3 -6 35 -57 73 -113 37
-56 67 -106 67 -112 0 -6 4 -11 9 -11 5 0 11 -8 15 -17 5 -15 157 -255 183
-289 4 -5 13 -18 18 -27 6 -9 60 -94 120 -189 61 -94 117 -183 125 -197 8 -14
20 -30 25 -36 6 -7 19 -28 30 -48 11 -20 22 -37 25 -37 3 0 29 37 58 83 104
161 228 355 292 456 36 56 103 161 150 234 47 73 114 179 150 235 36 57 108
169 160 251 86 133 322 502 458 713 28 45 52 87 52 93 0 7 -8 21 -17 32 -72
82 -130 148 -138 157 -5 6 -37 43 -70 81 -33 39 -65 75 -70 81 -6 6 -35 39
-65 74 -30 35 -66 75 -78 89 -39 43 -118 134 -140 161 l-20 25 -717 0 -718 0
-105 -120z m1358 -81 c0 -6 -7 -34 -16 -64 -9 -29 -18 -61 -20 -69 -11 -49
-68 -267 -70 -270 -2 -2 -195 -3 -430 -3 -291 0 -430 4 -437 11 -6 6 -8 11 -4
11 3 0 0 18 -8 40 -8 22 -14 41 -13 43 0 1 -2 13 -6 27 -4 14 -11 41 -16 60
-5 19 -21 75 -35 124 -13 49 -23 92 -21 95 8 12 1076 7 1076 -5z m-1245 -125
c2 -7 19 -74 38 -146 l35 -133 -41 -1 c-132 -1 -300 1 -304 4 -7 7 250 298
261 294 5 -2 10 -10 11 -18z m1455 1 c10 -12 33 -40 52 -62 18 -23 40 -49 48
-57 51 -51 132 -152 127 -157 -3 -4 -67 -6 -141 -6 -199 1 -196 1 -196 14 0
29 75 288 83 288 5 0 18 -9 27 -20z m-1330 -487 c5 -4 22 -60 38 -123 53 -201
73 -273 92 -340 15 -51 59 -218 85 -320 10 -40 49 -186 75 -279 16 -58 27
-107 23 -110 -3 -4 -8 -1 -10 6 -4 10 -116 187 -207 328 -18 28 -55 85 -82
127 -109 172 -214 336 -306 478 -54 83 -98 155 -98 160 0 6 -4 10 -8 10 -5 0
-15 12 -23 28 -7 15 -15 30 -17 34 -5 11 43 13 242 11 104 -1 192 -5 196 -10z
m956 4 c2 -2 -7 -41 -20 -88 -13 -46 -27 -97 -32 -114 -4 -16 -8 -32 -9 -35
-10 -34 -25 -90 -29 -110 -7 -32 -13 -56 -76 -285 -28 -104 -78 -291 -112
-415 -33 -124 -66 -250 -74 -280 -18 -67 -21 -70 -33 -36 -8 20 -56 195 -76
276 -28 116 -35 143 -95 360 -47 167 -134 494 -171 638 -15 57 -19 86 -11 90
11 7 731 6 738 -1z m640 0 c6 -5 -36 -75 -138 -232 -36 -55 -93 -145 -128
-200 -77 -121 -128 -201 -206 -320 -32 -49 -61 -94 -63 -100 -2 -5 -17 -29
-32 -52 -16 -23 -29 -44 -29 -48 0 -3 -5 -11 -11 -18 -19 -22 -119 -179 -119
-187 0 -4 -6 -10 -13 -13 -9 -3 6 68 45 212 33 119 77 284 99 366 22 83 41
157 44 165 2 8 10 40 19 70 8 30 29 107 46 170 33 119 38 137 39 157 2 35 25
38 234 37 114 -1 210 -4 213 -7z"/>
<path d="M1434 3992 c-49 -75 -76 -157 -81 -253 -6 -100 9 -167 64 -271 34
-66 34 -66 17 -100 -23 -44 -163 -282 -225 -381 -27 -43 -49 -80 -49 -82 0 -2
-47 -83 -105 -180 -58 -97 -105 -180 -105 -185 0 -6 -3 -10 -8 -10 -4 0 -16
-17 -27 -37 -11 -21 -42 -76 -71 -123 -28 -47 -97 -164 -154 -260 -56 -96
-133 -226 -171 -288 -37 -62 -71 -122 -74 -132 -4 -11 -11 -20 -16 -20 -5 0
-9 -4 -9 -9 0 -7 -88 -159 -151 -261 -54 -87 -159 -272 -159 -279 0 -5 -4 -11
-8 -13 -8 -3 -72 -113 -72 -123 0 -15 197 22 239 45 13 6 25 9 28 6 3 -3 23 6
44 20 21 13 42 24 45 24 30 0 217 174 230 213 3 9 10 17 15 17 5 0 9 7 9 15 0
8 4 15 8 15 5 0 16 15 25 33 9 17 29 53 44 79 221 374 269 453 275 456 5 2 8
8 8 13 0 8 186 329 260 449 5 8 48 83 97 165 48 83 105 177 126 210 20 33 40
68 43 78 4 9 10 17 15 17 5 0 9 6 9 13 1 6 27 56 59 110 l57 97 21 -22 c11
-13 51 -72 88 -133 38 -60 88 -139 112 -175 24 -36 43 -72 43 -80 0 -9 -29
-64 -65 -124 -36 -59 -65 -112 -65 -117 0 -5 -4 -9 -10 -9 -5 0 -10 -4 -10
-10 0 -5 -36 -69 -80 -141 -44 -73 -80 -136 -80 -140 0 -5 -4 -9 -10 -9 -5 0
-10 -9 -10 -19 0 -11 -3 -21 -8 -23 -6 -3 -106 -165 -139 -226 -7 -13 -55 -94
-106 -180 -332 -554 -394 -662 -378 -664 46 -4 133 9 204 32 63 19 165 69 194
94 7 6 32 27 56 46 74 61 120 124 261 363 76 127 146 243 155 257 9 14 28 46
41 73 14 26 28 47 32 47 5 0 8 5 8 11 0 6 27 56 60 111 33 54 60 103 60 108 0
6 5 10 10 10 6 0 10 4 10 10 0 5 21 43 46 85 l46 76 29 -41 c16 -22 29 -42 29
-45 0 -3 16 -28 36 -56 19 -28 38 -58 42 -67 4 -9 47 -77 95 -149 48 -73 87
-137 87 -143 0 -5 3 -10 8 -10 4 0 12 -9 17 -20 6 -11 69 -111 140 -222 72
-111 137 -213 145 -227 8 -14 18 -27 23 -29 4 -2 7 -9 7 -16 0 -7 9 -21 20
-31 11 -10 20 -22 20 -27 0 -6 17 -35 39 -66 21 -32 56 -84 76 -117 34 -53 39
-58 49 -42 10 18 225 355 246 387 34 53 171 265 199 311 19 30 56 87 83 127
26 40 48 74 48 77 0 2 38 62 83 132 46 70 105 161 131 202 l48 74 99 -168 c54
-92 99 -170 99 -173 0 -3 11 -20 25 -38 14 -18 25 -35 25 -39 0 -3 49 -87 109
-188 59 -100 116 -195 125 -212 9 -16 28 -48 41 -70 14 -22 31 -51 38 -65 6
-14 17 -29 24 -33 7 -4 13 -14 13 -22 0 -24 160 -178 225 -217 57 -35 175 -80
240 -93 47 -9 135 -16 135 -10 0 2 -25 45 -55 95 -30 50 -55 94 -55 98 0 5 -7
17 -15 27 -27 36 -155 253 -155 264 0 6 -4 11 -8 11 -4 0 -13 12 -19 28 -7 15
-37 67 -67 115 -31 48 -66 107 -79 130 -41 73 -62 107 -172 292 -59 99 -115
194 -125 210 -56 97 -195 331 -200 335 -3 3 -11 18 -18 33 -10 24 -10 33 5 60
10 18 20 34 23 37 11 10 170 261 170 268 0 4 13 22 28 40 l28 33 109 -187 c61
-102 119 -201 130 -220 11 -18 54 -90 95 -160 41 -69 87 -147 103 -173 15 -25
30 -54 33 -63 4 -10 10 -18 15 -18 5 0 9 -4 9 -10 0 -5 32 -61 70 -125 39 -64
70 -120 70 -125 0 -6 5 -10 10 -10 6 0 10 -4 10 -10 0 -5 25 -50 55 -100 30
-50 55 -95 55 -100 0 -6 5 -10 10 -10 6 0 10 -4 10 -10 0 -5 38 -73 85 -151
47 -78 85 -144 85 -146 0 -18 139 -209 182 -251 72 -71 186 -145 233 -152 6 0
20 -8 33 -16 12 -8 22 -12 22 -10 0 3 15 0 33 -5 71 -22 177 -34 177 -20 0 10
-38 79 -118 211 -25 41 -50 84 -56 95 -6 11 -84 142 -172 290 -88 149 -214
360 -279 470 -65 110 -144 244 -176 298 -33 54 -59 102 -59 107 0 6 -4 10 -10
10 -5 0 -10 4 -10 9 0 5 -68 123 -151 262 -83 140 -154 261 -157 269 -3 8 -8
17 -11 20 -7 5 -133 217 -187 312 l-33 58 34 64 c18 35 41 87 49 117 16 53 22
178 11 232 -10 50 -44 132 -76 182 l-31 49 -22 -29 c-11 -16 -35 -52 -52 -80
-17 -27 -76 -120 -131 -205 -55 -85 -121 -189 -148 -230 -26 -41 -47 -77 -46
-79 2 -2 -1 -7 -6 -10 -5 -3 -50 -71 -101 -151 -50 -80 -96 -150 -102 -157 -5
-7 -10 -14 -10 -17 0 -3 -17 -31 -39 -63 -79 -119 -101 -154 -101 -163 0 -4
-3 -10 -7 -12 -5 -1 -35 -46 -68 -98 -32 -52 -87 -138 -120 -190 -73 -112
-133 -206 -201 -313 -141 -222 -194 -304 -211 -327 -10 -13 -21 -31 -25 -40
-17 -37 -134 -214 -144 -217 -9 -3 -84 108 -177 262 -7 10 -16 25 -22 31 -5 7
-73 112 -150 233 -77 122 -177 279 -222 349 -45 70 -117 183 -161 252 -44 69
-171 267 -282 440 -112 173 -208 324 -214 335 -6 11 -29 47 -50 80 -22 33 -84
130 -138 215 -55 85 -105 161 -111 167 -10 10 -19 3 -43 -35z"/>
</g>
</svg>
